<?xml version="1.0" encoding="utf-8"?>
<!-- Generator: Adobe Illustrator 16.0.0, SVG Export Plug-In . SVG Version: 6.00 Build 0)  -->
<!DOCTYPE svg PUBLIC "-//W3C//DTD SVG 1.1//EN" "http://www.w3.org/Graphics/SVG/1.1/DTD/svg11.dtd">
<svg version="1.1" id="Calque_1" xmlns="http://www.w3.org/2000/svg" xmlns:xlink="http://www.w3.org/1999/xlink" x="0px" y="0px"
	 width="90px" height="40px" viewBox="0 0 594.305 339.965" style="enable-background:new 0 0 594.305 339.965;"
	 xml:space="preserve">
<style type="text/css">
<![CDATA[
	.st0{fill:#FEFEFE;}
	.st1{fill:#FFFEF9;}
	.st2{fill:#800000018000000180000001;}
]]>
</style>
<g>
	<polygon class="st1" points="315.037,118.468 356.76,160.188 356.76,118.468 	"/>
	<path class="st1" d="M250.804,118.468h-54.426l69.054,69.047h-64.226l-69.054-69.047H74.324l69.049,69.047H79.139l-59.632-59.634
		c-0.71,1.746-1.11,3.651-1.11,5.653v187.505c0,10.446,8.475,18.926,18.927,18.926h300.511c10.457,0,18.926-8.479,18.926-18.926
		V187.515h-36.911L250.804,118.468z"/>
	<polygon class="st1" points="299.837,5.945 242.61,14.235 184.168,92.471 241.398,84.181 	"/>
	<polygon class="st1" points="179.036,23.446 125.179,31.249 66.74,109.484 120.603,101.682 	"/>
	<path class="st1" d="M352.808,52.813l-5.081-35.086L304.969,74.97l35.086-5.081C348.291,68.694,354.003,61.048,352.808,52.813z"/>
	<path class="st1" d="M61.609,40.459l-36.495,5.287c-8.236,1.195-13.943,8.836-12.749,17.072l4.639,32.025l0.644,4.471l15.1-20.214
		L61.609,40.459z"/>
</g>
<g>
	<path class="st2" d="M158.118,288.013c0.938-2.52,1.922-5.23,2.946-8.135c1.024-2.903,2.027-5.902,3.011-8.999
		c0.981-3.096,1.931-6.234,2.85-9.415c0.918-3.181,1.739-6.31,2.466-9.384l-6.213-20.368c-0.427-1.409-0.395-2.636,0.097-3.683
		c0.49-1.046,1.27-1.922,2.338-2.626c1.066-0.704,2.338-1.228,3.811-1.569c1.474-0.341,3.021-0.512,4.644-0.512
		c1.409,0,2.668,0.074,3.779,0.224c1.109,0.15,2.081,0.417,2.914,0.801s1.526,0.929,2.082,1.634
		c0.554,0.704,1.002,1.611,1.345,2.722l18.382,59.182c0.982-2.646,2.007-5.508,3.075-8.582c1.066-3.075,2.113-6.234,3.138-9.479
		c1.025-3.245,2.007-6.533,2.946-9.864c0.939-3.33,1.762-6.597,2.467-9.799c0.704-3.203,1.259-6.267,1.665-9.191
		c0.405-2.925,0.608-5.604,0.608-8.038c0-2.818-0.192-5.166-0.576-7.046c-0.385-1.878-0.823-3.448-1.313-4.708
		c-0.491-1.259-0.929-2.295-1.313-3.105c-0.384-0.811-0.576-1.559-0.576-2.242c0-0.896,0.234-1.654,0.705-2.273
		c0.469-0.619,1.066-1.143,1.793-1.57c0.726-0.426,1.516-0.736,2.37-0.928c0.854-0.192,1.665-0.289,2.434-0.289
		c1.707,0,3.159,0.257,4.355,0.77c1.195,0.512,2.027,1.388,2.498,2.625c0.213,0.641,0.384,1.313,0.513,2.018
		c0.128,0.705,0.224,1.389,0.288,2.051c0.063,0.662,0.096,1.28,0.096,1.857c0,0.576,0,1.035,0,1.377
		c0,1.793-0.288,4.249-0.864,7.365c-0.577,3.117-1.367,6.629-2.37,10.536c-1.004,3.907-2.146,8.103-3.427,12.586
		s-2.616,8.999-4.003,13.547c-1.388,4.547-2.786,8.999-4.195,13.354c-1.409,4.354-2.744,8.38-4.003,12.073
		c-1.26,3.693-2.37,6.939-3.331,9.735c-0.961,2.797-1.697,4.879-2.21,6.245c-0.342,1.024-0.8,1.836-1.377,2.434
		c-0.576,0.599-1.238,1.057-1.985,1.377s-1.559,0.522-2.434,0.608c-0.876,0.085-1.783,0.128-2.723,0.128
		c-1.708,0-3.106-0.171-4.195-0.512c-1.089-0.343-1.953-0.769-2.594-1.281s-1.11-1.066-1.409-1.665
		c-0.299-0.598-0.534-1.131-0.704-1.602l-12.746-41.889c-1.409,4.654-2.84,9.234-4.291,13.738
		c-1.452,4.506-2.829,8.658-4.132,12.458c-1.303,3.801-2.466,7.121-3.49,9.96c-1.025,2.84-1.815,4.922-2.37,6.245
		c-0.428,1.024-0.951,1.836-1.569,2.434c-0.619,0.599-1.303,1.057-2.05,1.377s-1.548,0.522-2.401,0.608
		c-0.854,0.085-1.729,0.128-2.626,0.128c-1.709,0-3.106-0.171-4.195-0.512c-1.089-0.343-1.954-0.769-2.594-1.281
		c-0.641-0.513-1.121-1.066-1.441-1.665c-0.32-0.598-0.566-1.131-0.736-1.602l-22.802-76.22c-0.428-1.451-0.887-2.679-1.378-3.683
		c-0.491-1.003-1.089-1.825-1.793-2.466s-1.56-1.11-2.563-1.409s-2.231-0.448-3.683-0.448c-1.195,0-2.584,0.288-4.163,0.864
		c-1.58,0.576-3.085,1.432-4.516,2.563c-1.431,1.132-2.637,2.541-3.619,4.228s-1.473,3.641-1.473,5.86
		c0,1.367,0.181,2.456,0.544,3.267c0.362,0.812,0.779,1.42,1.249,1.825c0.47,0.406,0.95,0.662,1.441,0.769
		c0.49,0.107,0.843,0.16,1.057,0.16c1.067,0,1.942-0.181,2.626-0.544c0.683-0.362,1.303-0.747,1.857-1.153
		c0.555-0.405,1.078-0.79,1.569-1.153c0.49-0.362,1.058-0.544,1.697-0.544c0.513,0,1.058,0.118,1.634,0.353s1.109,0.608,1.602,1.12
		c0.49,0.513,0.906,1.186,1.248,2.018c0.342,0.833,0.513,1.848,0.513,3.043c0,1.708-0.331,3.182-0.992,4.419
		c-0.663,1.239-1.517,2.274-2.563,3.106c-1.047,0.833-2.241,1.452-3.587,1.857c-1.345,0.406-2.68,0.608-4.003,0.608
		c-2.05,0-3.875-0.362-5.476-1.089c-1.602-0.726-2.946-1.707-4.035-2.946c-1.089-1.237-1.922-2.679-2.498-4.323
		c-0.577-1.643-0.865-3.404-0.865-5.284c0-4.44,0.854-8.315,2.562-11.625c1.708-3.309,3.971-6.073,6.79-8.295
		c2.818-2.219,6.021-3.875,9.607-4.963c3.587-1.09,7.279-1.634,11.08-1.634c4.27,0,7.771,0.651,10.505,1.954
		c2.731,1.303,4.941,2.979,6.629,5.027c1.687,2.05,3.021,4.346,4.003,6.886c0.981,2.541,1.857,5.05,2.626,7.525L158.118,288.013z"/>
	<path class="st2" d="M249.71,281.031c0,1.366,0.202,2.85,0.608,4.451c0.405,1.601,0.993,3.213,1.762,4.836s1.718,3.17,2.85,4.644
		c1.131,1.473,2.435,2.786,3.907,3.938c1.474,1.153,3.106,2.072,4.899,2.755c1.794,0.684,3.758,1.024,5.893,1.024
		c1.494,0,2.883-0.17,4.164-0.513c1.28-0.341,2.476-0.811,3.587-1.409c1.109-0.597,2.177-1.291,3.202-2.081
		c1.024-0.79,2.05-1.634,3.074-2.53l1.602,1.537c-0.983,1.324-2.242,2.776-3.779,4.355c-1.537,1.58-3.395,3.064-5.572,4.451
		c-2.178,1.389-4.719,2.541-7.622,3.459c-2.904,0.918-6.213,1.377-9.928,1.377s-7.334-0.672-10.856-2.018
		c-3.522-1.345-6.651-3.362-9.383-6.053c-2.733-2.689-4.922-6.041-6.565-10.056c-1.645-4.013-2.466-8.711-2.466-14.091
		c0-3.885,0.49-7.451,1.473-10.696s2.316-6.17,4.004-8.775c1.686-2.604,3.65-4.889,5.893-6.853c2.241-1.964,4.601-3.598,7.077-4.9
		c2.476-1.302,5.006-2.283,7.59-2.946c2.583-0.661,5.07-0.992,7.462-0.992c3.159,0,5.913,0.342,8.263,1.024
		c2.348,0.684,4.301,1.602,5.86,2.754c1.558,1.153,2.722,2.488,3.49,4.003c0.769,1.517,1.153,3.106,1.153,4.772
		c0,2.007-0.576,3.811-1.729,5.412c-1.153,1.601-2.69,3-4.611,4.195L249.71,281.031z M262.584,268.028
		c0.555-0.341,1.014-0.672,1.377-0.992c0.362-0.32,0.65-0.705,0.864-1.153s0.374-1.003,0.48-1.665s0.16-1.483,0.16-2.466
		c0-1.067-0.118-2.252-0.352-3.555c-0.235-1.303-0.631-2.53-1.186-3.684c-0.556-1.152-1.26-2.113-2.113-2.882
		c-0.854-0.769-1.88-1.153-3.074-1.153c-1.537,0-2.851,0.46-3.939,1.378s-1.985,2.104-2.69,3.555
		c-0.704,1.452-1.26,3.106-1.665,4.964c-0.406,1.857-0.716,3.726-0.929,5.604c-0.214,1.879-0.342,3.683-0.384,5.412
		c-0.043,1.729-0.064,3.192-0.064,4.387L262.584,268.028z"/>
	<path class="st2" d="M291.79,222.041c0-1.238-0.288-2.316-0.864-3.234c-0.577-0.918-1.549-1.377-2.915-1.377
		c-0.727,0-1.355,0.117-1.889,0.352c-0.534,0.235-1.1,0.588-1.698,1.057l-1.28-1.537c0.982-0.811,2.081-1.611,3.298-2.401
		c1.218-0.79,2.53-1.483,3.939-2.082c1.409-0.597,2.925-1.089,4.548-1.474c1.622-0.384,3.33-0.576,5.124-0.576
		c2.476,0,4.473,0.375,5.988,1.121c1.516,0.748,2.668,1.666,3.459,2.754c0.789,1.09,1.313,2.264,1.569,3.523
		c0.256,1.26,0.384,2.424,0.384,3.49v28.566c0.513-0.47,1.174-1.057,1.985-1.762c0.812-0.704,1.836-1.397,3.075-2.081
		c1.237-0.683,2.722-1.259,4.451-1.729c1.729-0.47,3.768-0.704,6.117-0.704c2.731,0,5.465,0.63,8.198,1.889
		c2.731,1.261,5.188,3.235,7.365,5.925c2.178,2.69,3.949,6.149,5.316,10.376c1.366,4.228,2.05,9.31,2.05,15.244
		c0,4.654-0.631,9.053-1.89,13.194c-1.26,4.143-3.129,7.761-5.604,10.856c-2.477,3.097-5.572,5.54-9.287,7.334
		c-3.715,1.793-8.028,2.689-12.938,2.689c-5.338,0-9.831-0.864-13.482-2.594c-3.65-1.729-6.587-4.056-8.807-6.981
		c-2.221-2.924-3.811-6.33-4.771-10.216c-0.961-3.885-1.441-7.984-1.441-12.298V222.041z M329.964,278.533
		c0-3.715-0.192-7.206-0.576-10.473c-0.385-3.267-1.004-6.127-1.857-8.583c-0.855-2.454-1.944-4.397-3.267-5.828
		c-1.324-1.43-2.926-2.146-4.804-2.146c-1.452,0-2.681,0.353-3.684,1.057s-1.825,1.505-2.466,2.402
		c-0.641,0.896-1.11,1.783-1.409,2.657c-0.299,0.876-0.448,1.464-0.448,1.762v19.151c0,9.309,0.779,16.076,2.338,20.304
		c1.559,4.227,3.854,6.341,6.886,6.341c3.202,0,5.55-2.156,7.045-6.469C329.216,294.396,329.964,287.671,329.964,278.533z"/>
	<path class="st0" d="M403.558,220.184c-1.153,0-2.498,0.234-4.035,0.704c-1.537,0.471-3.106,1.356-4.708,2.658
		c-1.601,1.304-3.17,3.128-4.707,5.477s-2.915,5.391-4.132,9.127c-1.217,3.737-2.199,8.273-2.946,13.61
		c-0.747,5.338-1.121,11.637-1.121,18.895c0,6.918,0.374,12.917,1.121,17.998c0.747,5.082,1.751,9.405,3.011,12.971
		c1.259,3.565,2.7,6.479,4.323,8.742c1.622,2.263,3.33,4.024,5.124,5.284c1.793,1.26,3.587,2.124,5.38,2.595
		c1.794,0.469,3.479,0.704,5.061,0.704c1.665,0,3.352-0.214,5.06-0.641c1.707-0.427,3.384-1.047,5.028-1.857
		c1.643-0.812,3.223-1.793,4.739-2.946c1.516-1.152,2.914-2.477,4.195-3.971l2.882,2.882c-1.28,1.579-2.817,3.191-4.611,4.836
		c-1.793,1.644-3.875,3.139-6.245,4.483c-2.369,1.345-5.027,2.444-7.974,3.299c-2.946,0.854-6.213,1.281-9.8,1.281
		c-5.595,0-10.792-1.068-15.596-3.203c-4.805-2.136-8.989-5.455-12.555-9.96c-3.565-4.504-6.362-10.279-8.39-17.325
		c-2.029-7.045-3.043-15.478-3.043-25.3c0-9.223,1.067-17.314,3.203-24.274c2.134-6.96,5.037-12.778,8.71-17.454
		c3.672-4.675,7.984-8.198,12.938-10.567c4.953-2.371,10.226-3.556,15.82-3.556c3.715,0,7.099,0.353,10.152,1.058
		c3.052,0.704,5.689,1.729,7.91,3.074c2.22,1.345,3.938,3.01,5.155,4.996c1.217,1.984,1.826,4.238,1.826,6.757
		c0,1.152-0.192,2.359-0.577,3.619c-0.384,1.26-0.972,2.412-1.761,3.458c-0.791,1.047-1.762,1.9-2.915,2.563
		c-1.152,0.662-2.498,0.992-4.035,0.992c-1.366,0-2.424-0.298-3.17-0.896c-0.748-0.598-1.303-1.387-1.665-2.37
		c-0.363-0.981-0.599-2.103-0.705-3.362c-0.107-1.259-0.182-2.551-0.224-3.875c-0.044-1.323-0.14-2.615-0.289-3.875
		c-0.149-1.259-0.448-2.38-0.896-3.363c-0.448-0.98-1.1-1.771-1.953-2.369C406.29,220.482,405.095,220.184,403.558,220.184z"/>
	<path class="st0" d="M454.285,304.665c0,0.556-0.097,1.229-0.288,2.018c-0.192,0.791-0.641,1.537-1.346,2.242
		c-0.704,0.704-1.719,1.303-3.042,1.793c-1.324,0.49-3.117,0.736-5.38,0.736c-2.265,0-4.035-0.267-5.316-0.8
		c-1.281-0.534-2.242-1.163-2.883-1.89c-0.641-0.726-1.035-1.474-1.185-2.242c-0.15-0.769-0.225-1.387-0.225-1.857v-49.446
		c0-1.238-0.288-2.315-0.864-3.234c-0.576-0.918-1.548-1.377-2.914-1.377c-0.727,0-1.346,0.128-1.857,0.384
		c-0.513,0.256-1.068,0.619-1.665,1.089l-1.346-1.602c0.982-0.811,2.082-1.61,3.299-2.401c1.217-0.79,2.53-1.483,3.939-2.082
		c1.408-0.597,2.924-1.089,4.547-1.473c1.622-0.385,3.331-0.576,5.124-0.576c2.775,0,4.932,0.374,6.469,1.12
		c1.538,0.748,2.669,1.666,3.396,2.755c0.726,1.089,1.162,2.252,1.313,3.49c0.149,1.239,0.225,2.328,0.225,3.267V304.665z
		 M432.636,229.343c0-1.195,0.267-2.338,0.801-3.427c0.533-1.089,1.281-2.039,2.242-2.851c0.96-0.811,2.07-1.451,3.33-1.921
		c1.259-0.47,2.636-0.705,4.132-0.705c1.45,0,2.807,0.235,4.066,0.705s2.359,1.11,3.299,1.921c0.938,0.812,1.676,1.762,2.21,2.851
		c0.533,1.089,0.801,2.231,0.801,3.427c0,1.238-0.268,2.392-0.801,3.458c-0.534,1.068-1.271,1.997-2.21,2.786
		c-0.939,0.791-2.039,1.421-3.299,1.89c-1.26,0.471-2.616,0.705-4.066,0.705c-1.496,0-2.873-0.234-4.132-0.705
		c-1.26-0.469-2.37-1.099-3.33-1.89c-0.961-0.789-1.709-1.718-2.242-2.786C432.902,231.734,432.636,230.581,432.636,229.343z"/>
	<path class="st0" d="M508.087,278.533c0-5.381-0.246-9.682-0.737-12.906c-0.491-3.224-1.143-5.679-1.953-7.366
		c-0.812-1.687-1.708-2.796-2.69-3.33c-0.982-0.533-1.985-0.801-3.01-0.801c-1.239,0-2.338,0.331-3.299,0.993
		s-1.793,1.42-2.498,2.273c-0.704,0.854-1.303,1.708-1.793,2.562c-0.492,0.855-0.908,1.495-1.249,1.922v42.785
		c0,0.556-0.086,1.229-0.257,2.018c-0.171,0.791-0.587,1.537-1.249,2.242c-0.662,0.704-1.644,1.303-2.946,1.793
		s-3.085,0.736-5.348,0.736c-2.264,0-4.046-0.267-5.349-0.8c-1.303-0.534-2.296-1.163-2.978-1.89
		c-0.684-0.726-1.111-1.474-1.281-2.242c-0.171-0.769-0.257-1.387-0.257-1.857v-49.446c0-1.238-0.288-2.315-0.864-3.234
		c-0.576-0.918-1.548-1.377-2.914-1.377c-0.727,0-1.346,0.128-1.857,0.384c-0.513,0.256-1.068,0.619-1.665,1.089l-1.346-1.602
		c0.982-0.811,2.082-1.61,3.299-2.401c1.217-0.79,2.53-1.483,3.939-2.082c1.408-0.597,2.924-1.089,4.547-1.473
		c1.622-0.385,3.331-0.576,5.124-0.576c2.775,0,4.932,0.459,6.469,1.377c1.538,0.918,2.669,2.018,3.396,3.298
		c0.726,1.281,1.162,2.616,1.313,4.004c0.149,1.388,0.225,2.552,0.225,3.49c1.579-2.263,3.372-4.291,5.38-6.085
		c0.811-0.769,1.719-1.515,2.722-2.241c1.003-0.726,2.071-1.377,3.203-1.954c1.131-0.576,2.326-1.034,3.587-1.377
		c1.259-0.341,2.551-0.512,3.875-0.512c2.903,0,5.476,0.555,7.718,1.665s4.131,2.968,5.668,5.572
		c1.538,2.604,2.712,6.053,3.523,10.344c0.811,4.292,1.217,9.619,1.217,15.98c0,6.192-0.556,11.572-1.665,16.141
		c-1.111,4.569-2.563,8.455-4.355,11.657c-1.794,3.202-3.822,5.817-6.085,7.846c-2.264,2.028-4.548,3.619-6.854,4.772
		c-2.306,1.152-4.516,1.953-6.629,2.401c-2.114,0.448-3.939,0.693-5.477,0.736l-0.704-2.626c1.28-0.299,2.466-0.769,3.555-1.409
		c1.089-0.64,2.081-1.58,2.979-2.817c0.896-1.239,1.686-2.809,2.369-4.708c0.683-1.899,1.271-4.28,1.762-7.142
		c0.49-2.86,0.854-6.245,1.089-10.152C507.969,288.301,508.087,283.743,508.087,278.533z"/>
	<path class="st0" d="M557.533,281.031c0,1.366,0.202,2.85,0.608,4.451c0.405,1.601,0.993,3.213,1.762,4.836s1.718,3.17,2.85,4.644
		c1.131,1.473,2.435,2.786,3.907,3.938c1.474,1.153,3.106,2.072,4.899,2.755c1.794,0.684,3.758,1.024,5.893,1.024
		c1.494,0,2.883-0.17,4.164-0.513c1.28-0.341,2.476-0.811,3.587-1.409c1.109-0.597,2.177-1.291,3.202-2.081
		c1.024-0.79,2.05-1.634,3.074-2.53l1.602,1.537c-0.983,1.324-2.242,2.776-3.779,4.355c-1.537,1.58-3.395,3.064-5.572,4.451
		c-2.178,1.389-4.719,2.541-7.622,3.459c-2.904,0.918-6.213,1.377-9.928,1.377s-7.334-0.672-10.856-2.018
		c-3.522-1.345-6.651-3.362-9.383-6.053c-2.733-2.689-4.922-6.041-6.565-10.056c-1.645-4.013-2.466-8.711-2.466-14.091
		c0-3.885,0.49-7.451,1.473-10.696s2.316-6.17,4.004-8.775c1.686-2.604,3.65-4.889,5.893-6.853c2.241-1.964,4.601-3.598,7.077-4.9
		c2.476-1.302,5.006-2.283,7.59-2.946c2.583-0.661,5.07-0.992,7.462-0.992c3.159,0,5.913,0.342,8.263,1.024
		c2.348,0.684,4.301,1.602,5.86,2.754c1.558,1.153,2.722,2.488,3.49,4.003c0.769,1.517,1.153,3.106,1.153,4.772
		c0,2.007-0.576,3.811-1.729,5.412c-1.153,1.601-2.69,3-4.611,4.195L557.533,281.031z M570.407,268.028
		c0.555-0.341,1.014-0.672,1.377-0.992c0.362-0.32,0.65-0.705,0.864-1.153s0.374-1.003,0.48-1.665s0.16-1.483,0.16-2.466
		c0-1.067-0.118-2.252-0.352-3.555c-0.235-1.303-0.631-2.53-1.186-3.684c-0.556-1.152-1.26-2.113-2.113-2.882
		c-0.854-0.769-1.88-1.153-3.074-1.153c-1.537,0-2.851,0.46-3.939,1.378s-1.985,2.104-2.69,3.555
		c-0.704,1.452-1.26,3.106-1.665,4.964c-0.406,1.857-0.716,3.726-0.929,5.604c-0.214,1.879-0.342,3.683-0.384,5.412
		c-0.043,1.729-0.064,3.192-0.064,4.387L570.407,268.028z M557.661,235.684l17.422-16.846c0.726-0.641,1.494-1.162,2.306-1.568
		c0.811-0.406,1.622-0.609,2.434-0.609c0.769,0,1.494,0.183,2.178,0.545c0.683,0.363,1.281,0.844,1.794,1.441
		c0.512,0.598,0.917,1.271,1.217,2.018c0.298,0.747,0.448,1.505,0.448,2.273c0,1.111-0.374,2.082-1.121,2.914
		c-0.747,0.833-1.633,1.484-2.658,1.953l-22.737,9.672L557.661,235.684z"/>
</g>
</svg>
